<?xml version="1.0" encoding="UTF-8"?><svg xmlns="http://www.w3.org/2000/svg" width="98.19" height="41.62" viewBox="0 0 98.19 41.62"><g isolation="isolate"><g id="Layer_1"><path d="M15,9.53c-.69,1.09-1.44,2.14-2.24,3.15-.44.55-.89,1.08-1.36,1.6-.03.03-.06.07-.09.1-.19.69-.63,1.31-1.22,1.71-.08.05-.17.11-.25.15-.2.11-.42.19-.65.21-.2.17-.4.33-.6.49l.09.12c.27.55.43,1.17.35,1.77-.09.6-.44,1.19-.99,1.46-.31.15-.72.18-.95-.06-.02-.02-.04-.04-.05-.07-.11-.16-.15-.36-.18-.56-.03-.19-.06-.39-.09-.58-.04-.27-.08-.54-.12-.81-.03-.22-.07-.44-.1-.65-.03-.2-.06-.41.06-.58.06-.09.15-.15.24-.21.5-.32,1-.64,1.49-.97,0-.13.04-.25.09-.37.04-.1.07-.21.11-.32.21-.61.43-1.22.64-1.83.05-.14.1-.29.22-.37.09-.07.2-.09.31-.11.4-.09.79-.24,1.15-.43-.07-.08-.13-.18-.18-.28-.06-.14-.08-.3-.06-.46.02-.17.09-.33.22-.45.15-.14.36-.19.55-.28.41-.18.75-.49,1.1-.77.1-.08.19-.15.29-.22.23-.16.5-.3.78-.3.24,0,.96,0,1.45-.08Z" fill="#f880b1" stroke-width="0"/><path d="M14.14,41.51c-1.37.24-2.8.08-4.13-.35-1.64-.53-3.13-1.45-4.51-2.5-.19-.14-.38-.29-.55-.45-.06-.05-.11-.11-.17-.16.87-2.24,1.54-4.56,1.85-6.94h0c.07-.55.12-1.1.15-1.66.03-.6.04-1.2.06-1.8.01-.46.03-.92.08-1.37.6-.34,1.21-.81,1.8-1.44.17-.38.35-.76.55-1.12.72-1.3,1.65-2.48,2.6-3.62.41-.49.84-.98,1.16-1.54.68-1.2.81-2.63,1.3-3.92.13-.36.3-.71.54-1.01.58-.7,1.63-.96,2.48-.63.1.04.2.09.27.17.14.18.07.45,0,.68-.2.62-.32,1.26-.37,1.91,1.84-2.72,3.35-5.7,4.43-8.83.09-.07.19-.13.3-.17.22-.08.49-.07.67.08.31.26.21.74.11,1.13-.41,1.6-.4,3.27-.44,4.92-.02.81-.07,1.68-.48,2.37h.02c-.68,1.1-1.34,2.2-1.84,3.37-.48,1.12-.8,2.3-1.32,3.4-.72,1.55-1.78,2.92-2.52,4.46-1.4,2.89-1.61,6.18-1.77,9.39-.1,1.88-.18,3.76-.27,5.64Z" fill="#f880b1" stroke-width="0"/><path d="M23.61,3.48c-.03.07-.06.15-.09.22-.31.73-1.39,1.91-1.39,1.91-.14.44-.28.88-.43,1.32-1.09,3.13-2.59,6.11-4.43,8.83.04-.65.17-1.29.37-1.91.07-.22.15-.49,0-.68-.07-.09-.17-.14-.27-.17-.85-.33-1.89-.07-2.48.63-.25.29-.41.65-.54,1.01-.48,1.29-.62,2.72-1.3,3.92-.32.56-.74,1.05-1.16,1.54-.7.83-1.38,1.69-1.98,2.59-.22.33-.43.68-.63,1.03-.2.36-.39.74-.55,1.12-.59.63-1.21,1.1-1.8,1.44-1.59.89-3.08.82-3.91.1-.92-.8-1.75-1.74-2.31-2.87-.56-1.13-.84-2.47-.63-3.78.1-.61.36-1.29.9-1.51.38-.16.78-.04,1.15.13.12.05.24.11.36.17.62.28,1.27.47,1.95.54.76-.18,1.5-.47,2.21-.84.07.46.14.93.21,1.39.03.22.07.46.23.62.11.12.26.17.43.18.18,0,.37-.04.53-.12.55-.27.9-.85.99-1.46.09-.6-.07-1.22-.35-1.77l-.09-.12c.2-.16.41-.32.6-.49.22-.02.45-.1.65-.21.72-.38,1.26-1.08,1.47-1.86.03-.03.06-.07.09-.1.47-.52.92-1.05,1.36-1.6.8-1,1.55-2.05,2.24-3.15.92-1.45,1.73-2.96,2.43-4.53h0c-.41-.17-.7-.78-.57-1.25.04-.16.11-.31.2-.45.17-.28.42-.51.69-.7.4-.28.83-.48,1.24-.74.54-.35,1-.83,1.52-1.22.52-.39,1.12-.69,1.73-.64.03,0,.06,0,.08.01.68.1,1.23.68,1.43,1.38.19.66.11,1.4-.14,2.08Z" fill="#fda9ca" stroke-width="0"/><path d="M22.12,5.61c-.14.44-.28.88-.43,1.32-1.09,3.13-2.59,6.11-4.43,8.83.04-.65.17-1.29.37-1.91.07-.22.15-.49,0-.68-.07-.09-.17-.14-.27-.17-.85-.33-1.89-.07-2.48.63-.25.29-.41.65-.54,1.01-.48,1.29-.62,2.72-1.3,3.92-.32.56-.74,1.05-1.16,1.54-.7.83-1.38,1.69-1.98,2.59-.22.33-.43.68-.63,1.03-.2.36-.39.74-.55,1.12-.59.63-1.21,1.1-1.8,1.44-1.59.89-3.08.82-3.91.1-.92-.8-1.75-1.74-2.31-2.87-.56-1.13-.84-2.47-.63-3.78.1-.61.36-1.29.9-1.51.38-.16.78-.04,1.15.13h0c-1.29,5.12,2.47,6.46,5.04,6.16.88-.1,1.68-.9,2.41-2.05,1.39-2.18,2.54-5.62,3.57-7.84,1.57-3.39,3.82-1.72,5.03-4.36,1.21-2.64.8-5.05.8-5.05,1.33.71,3.17.41,3.17.41Z" mix-blend-mode="soft-light" opacity=".3" stroke-width="0"/><path d="M12.36,13.88c-1.96,1.98-1.63,2.6-3.1,3.35,0,0,.85,3.1-1.75,3.2v-.02c.18,0,.37-.04.53-.12.55-.27.9-.85.99-1.46.09-.6-.07-1.22-.35-1.77l-.09-.12c.2-.16.41-.32.6-.49.22-.02.45-.1.65-.21.72-.38,1.26-1.08,1.47-1.86.03-.03.06-.07.09-.1.47-.52.92-1.05,1.36-1.6.8-1,1.55-2.05,2.24-3.15.92-1.45,1.73-2.96,2.43-4.53,0,0,.08.28.8.24,0,0-3.91,6.65-5.87,8.63Z" mix-blend-mode="soft-light" opacity=".3" stroke-width="0"/><path d="M7.78,28.01s-.47,0-.93-.36c.01-.46.03-.92.08-1.37.6-.34,1.21-.81,1.8-1.44,0,0-.72,2.09-.95,3.17Z" mix-blend-mode="soft-light" opacity=".3" stroke-width="0"/><path d="M15.21,23.65s.44-2.06,1.23-4.11c.79-2.06.81-3.77.81-3.77,0,0,1.64,1.1,1.98,2.33,0,0-1.04-.16-1.78,1.47-.73,1.62-2.24,4.09-2.24,4.09Z" mix-blend-mode="soft-light" opacity=".3" stroke-width="0"/><path d="M23.61,3.48c-.09.14-.19.29-.29.42-.48.67-1.12,1.41-2.03,1.29-.45-.06-.86-.28-1.29-.43-.22-.08-.45-.14-.69-.15-.25,0-.5.03-.75.04-.42.02-.88-.05-1.14-.42-.16-.23-.18-.55-.01-.77.04-.05.09-.1.15-.14.17-.11.37-.09.56,0,.23.1.45.23.68.33.47.2.96.34,1.47.36.44.01.89-.07,1.29-.28.4-.21.7-.55.9-.95.29-.58.32-1.23.2-1.85-.11-.3-.32-.6-.34-.92.68.1,1.23.68,1.43,1.38.19.66.11,1.4-.14,2.08Z" mix-blend-mode="soft-light" opacity=".3" stroke-width="0"/><path d="M7.86,27.58c.39-2.83,2.1-5.24,3.87-7.39.45-.54.93-1.05,1.27-1.65.35-.59.46-1.3.68-1.97.34-.99.61-2.05,1.24-2.91.22-.28.52-.51.86-.58-.34.1-.62.34-.82.62-.58.87-.82,1.93-1.14,2.92-.19.67-.31,1.38-.67,2.01-.35.63-.84,1.15-1.28,1.7-1.78,2.14-3.48,4.48-4.03,7.26h0Z" fill="#e2428a" stroke-width="0"/><path d="M17.55,14.1c-.29.81-.15,1.69-.3,2.53-.12.85-.37,1.67-.64,2.48-.56,1.6-1.23,3.18-1.44,4.87.02-.43.06-.85.14-1.27.39-2.09,1.42-4.01,1.8-6.11.17-.81.09-1.74.45-2.5h0Z" fill="#e2428a" stroke-width="0"/><path d="M17.41,15.9c1.13.4,1.75,1.57,2.1,2.64-.62-.96-1.12-1.99-2.1-2.64h0Z" fill="#e2428a" stroke-width="0"/><path d="M17.87,16.16c.31-.75.74-1.46,1.08-2.19.32-.73.29-1.63.74-2.31-.31.77-.22,1.62-.56,2.39-.36.75-.81,1.42-1.27,2.11h0Z" fill="#e2428a" stroke-width="0"/><path d="M19.2,13.54c.47-.12.99-.01,1.37.29-.49-.04-.91-.13-1.37-.29h0Z" fill="#e2428a" stroke-width="0"/><path d="M6.8,30.92c.52.35,1.09.27,1.68.17.61-.06,1.2.16,1.74.35,1.07.46,2.29.52,3.32-.09-.23.18-.5.32-.77.43-.56.2-1.18.25-1.77.11-.84-.19-1.64-.68-2.51-.65-.28,0-.58.09-.88.04-.3-.05-.58-.17-.8-.36h0Z" fill="#e2428a" stroke-width="0"/><path d="M17.17,14.93c-.18.35-.43.68-.82.81-.36.12-.75-.01-.99-.3-.1-.13-.17-.28-.21-.43-.08-.24-.07-.49,0-.74.07-.29.23-.66.45-.95.11-.16.23-.3.39-.41.32-.21.72-.17,1.08-.08.17.05.37.1.5.24.13.14.13.33.09.5-.09.47-.28.93-.5,1.35Z" fill="#fda9ca" stroke-width="0"/><path d="M8.41,19.18c.02.24.03.52-.08.74-.1.21-.31.3-.52.33-.22.04-.48.07-.69-.02-.22-.1-.28-.33-.32-.55-.05-.25-.09-.51-.01-.77.02-.05.04-.1.07-.14,0-.02,0-.05.02-.08.27-.36.76-.45,1.13-.22h0s.06.03.07.06c.02.02.05.03.07.05.17.16.25.38.27.6Z" fill="#fda9ca" stroke-width="0"/><path d="M10.27,15.13c-.02.14-.06.28-.11.42-.04.1-.07.21-.13.3,0,.01-.01.02-.02.03,0,.01,0,.02,0,.03-.04.09-.11.13-.2.14-.11.04-.24,0-.35,0-.07,0-.14,0-.21-.01-.16,0-.32-.01-.48-.03-.13-.01-.24-.05-.3-.18-.04-.09-.03-.2-.01-.29.03-.13.07-.26.11-.39.08-.24.2-.48.38-.67.32-.33.91-.42,1.2,0,.13.19.16.44.13.67Z" fill="#fda9ca" stroke-width="0"/><path d="M12.67,10.97c-.1.22-.21.45-.36.63-.12.16-.29.24-.49.2-.21-.04-.38-.17-.6-.21-.2-.04-.41-.02-.61.04.02-.17.09-.33.22-.45.15-.14.36-.19.55-.28.41-.18.75-.49,1.1-.77.13.04.24.14.28.27.06.19-.02.39-.09.56Z" fill="#fda9ca" stroke-width="0"/><path d="M10.84,12.39c.34.11.67.13,1.02.16.35.03.68.1,1.02-.03-.39.43-1.66.25-2.04-.14h0Z" fill="#e2428a" stroke-width="0"/><path d="M9.16,13.25c-.17.65-.36,1.28-.56,1.92l-.15.48c-.05.15-.06.25.07.35.83.62,1.9-.13,2.38-.87.35-.54.48-1.24.29-1.88.44.96-.02,2.12-.82,2.74-.53.45-1.38.65-1.96.16-.07-.06-.15-.15-.16-.27-.01-.11.02-.21.05-.28l.17-.47c.23-.63.45-1.25.71-1.87h0Z" fill="#e2428a" stroke-width="0"/><path d="M6.61,18.01c.25.58.24,1.26.36,1.85.22.65,1.07.32,1.44-.03.46-.4.66-1.03.55-1.63-.09-.61-.29-1.24-.76-1.68.53.38.78,1.03.91,1.65.17.64-.06,1.37-.56,1.81-.44.44-1.51.73-1.73-.08-.1-.64-.03-1.27-.21-1.9h0Z" fill="#e2428a" stroke-width="0"/><path d="M21.04.93c-.07.87-1.02,1.56-1.87,1.36.54-.61,1.13-1.03,1.87-1.36h0Z" fill="#fff" mix-blend-mode="soft-light" opacity=".5" stroke-width="0"/><path d="M5.4,19.65c.24.89,1.09,1.53,1.94,1.47,1.89-.12,1.92-2.01,2.17-3.46.11-.66.54-1.13,1.28-.92.23.05.3.04.4-.03.25-.23.32-.75.45-1.1.93-2.71,3.59-4.16,5.02-6.53.49-.76.87-1.58,1.18-2.44-.27,1.35-.85,2.65-1.65,3.78-.79,1.12-1.81,2.09-2.66,3.14-.56.69-1.05,1.43-1.31,2.25-.2.59-.33,1.47-1.13,1.56-.26.03-.49-.08-.69-.08-.06,0-.09.01-.13.05-.19.15-.26.68-.34,1.11-.16.91-.37,1.98-1.19,2.57-1.26.94-3.14.22-3.34-1.35h0Z" fill="#fff" mix-blend-mode="soft-light" opacity=".5" stroke-width="0"/><path d="M4.28,19.33c.96,1.11,1.66,2.71,1.17,4.17-.1-1.48-.72-2.78-1.17-4.17h0Z" fill="#f880b1" stroke-width="0"/><path d="M22.94,35.39c-.69.13-1.27.14-1.75,0-.47-.13-.85-.32-1.12-.59-.27-.27-.46-.54-.56-.81-.1-.27-.13-.48-.08-.63.05-.15.16-.16.35-.05,1.41.9,2.79.4,4.17-1.49,1.37-1.89,2.78-4.32,4.22-7.28.16-.32.32-.64.49-.96-1.04.01-1.95.3-2.71.85-.24.17-.41.17-.49,0-.09-.17-.06-.42.07-.76.13-.34.39-.67.78-.98.92-.62,1.99-.87,3.2-.75,1.7-3.47,3.53-6.06,5.49-7.77-2.04-.13-3.86,0-5.46.42-1.6.41-2.75,1.39-3.44,2.93-.17.36-.31.41-.42.14-.11-.27-.11-.74,0-1.4.1-.66.39-1.38.86-2.16.47-.78,1.21-1.48,2.2-2.12.99-.64,2.33-1.08,4-1.32,2.83-.18,5.55.05,8.18.69,1.87.4,3.49.6,4.87.59,1.38,0,2.35-.56,2.91-1.66.08-.16.19-.21.33-.16.13.05.23.18.29.39.06.21.04.48-.07.81-.8,1.79-2.26,2.82-4.37,3.06-2.12.25-4.46.24-7.03-.03-.39-.02-.78-.05-1.18-.09-1.64,1.66-3.11,4.34-4.42,8.04.72.13,1.35.19,1.89.17.55-.02.95-.2,1.2-.54.11-.15.19-.18.25-.11.06.07.09.21.09.4s-.05.4-.14.63c-.09.22-.25.42-.46.59-.35.25-.82.39-1.42.4-.59.01-1.26-.02-2-.11-1.02,2.72-2.21,5.19-3.57,7.43-1.36,2.24-3.08,3.64-5.17,4.21Z" fill="#f880b1" stroke-width="0"/><path d="M38.65,29.43c-.74-.12-1.19-.49-1.36-1.11-.17-.62-.12-1.3.15-2.05.27-.75.69-1.36,1.27-1.85-.86-.46-1.31-1.03-1.35-1.72-.04-.68.17-1.26.63-1.74.45-.47.98-.62,1.57-.44.28.13.44.35.47.65.04.3-.02.6-.18.92.51.33.92.75,1.25,1.27.32.52.37,1.02.15,1.51-.3.55-.54,1.02-.7,1.44-.16.41-.15.66.05.75.36.07.79-.15,1.26-.67.48-.52.91-1.16,1.3-1.92.39-.76.63-1.46.73-2.1.04-.18.12-.29.25-.34.13-.04.25,0,.35.11.11.12.15.32.13.63-.23,1.61-.9,3.14-2.02,4.58-1.12,1.44-2.43,2.13-3.95,2.07Z" fill="#f880b1" stroke-width="0"/><path d="M45.14,29.43c-1.61,0-2.45-.85-2.52-2.56-.07-1.7.47-3.37,1.6-4.99,1.13-1.62,2.73-2.47,4.77-2.55,1.01.11,1.56.65,1.65,1.61s-.24,1.84-.98,2.63c-.75.79-1.89.98-3.43.56-.25.63-.39,1.19-.4,1.68-.01.49.14.8.45.94.93.24,1.93-.17,2.99-1.25,1.06-1.07,1.99-2.37,2.79-3.88.1-.21.21-.29.34-.25.13.04.22.15.28.35.06.19.04.43-.05.71-.56,1.27-1.48,2.76-2.76,4.46-1.28,1.7-2.86,2.55-4.74,2.55ZM49.36,21.01c-.5,0-.98.21-1.44.64-.46.42-.87.93-1.22,1.53.57.15,1.07.12,1.5-.06.43-.19.77-.45,1.02-.77.25-.33.39-.63.42-.91.03-.28-.06-.42-.28-.42Z" fill="#f880b1" stroke-width="0"/><path d="M55.66,26.84c-1.01,1.72-2.21,2.58-3.6,2.58-1.83,0-2.75-.84-2.76-2.53,0-1.69.62-3.37,1.86-5.05,1.25-1.68,2.84-2.52,4.77-2.52.65,0,1.12.19,1.4.56.28.38.43.82.45,1.35.27-.27.56-.5.89-.71.41-.24.78-.34,1.09-.28.32.05.54.19.67.4.13.21.13.43-.02.65-.33.47-.69,1.11-1.07,1.9-.39.79-.67,1.53-.85,2.2-.18.67-.1,1.06.23,1.16.45.01.89-.29,1.34-.9.44-.61.84-1.2,1.18-1.76.35-.56.68-1.01,1-1.34.32-.33.48-.31.49.06,0,.37-.26,1.13-.8,2.29-.54,1.16-1.23,2.17-2.07,3.04-.84.87-1.81,1.2-2.9.99-.78-.25-1.21-.95-1.31-2.09ZM53.26,26.52c.47-.1,1.01-.5,1.6-1.22.59-.72,1.12-1.44,1.58-2.16.13-.28.29-.55.47-.82.07-.35.09-.65.05-.91-.04-.25-.18-.41-.41-.45-.7-.1-1.36.13-1.96.67-.61.55-1.1,1.2-1.47,1.97-.38.77-.57,1.45-.57,2.04,0,.59.23.88.72.88Z" fill="#f880b1" stroke-width="0"/><path d="M62.13,28.88c-.1.49-.32.8-.66.95-.35.15-.68.11-.99-.13-.32-.24-.49-.69-.53-1.36.05-2.49.64-4.75,1.77-6.78,1.13-2.04,2.22-3.46,3.25-4.27.67-.51,1.24-.78,1.73-.83.48-.04.82.03,1.01.23.19.19.17.39-.05.6-.52.41-1.12,1.12-1.81,2.13-.69,1.01-1.34,2.16-1.96,3.47.95-1.19,1.91-1.97,2.9-2.36.99-.38,1.83-.31,2.52.23.62.58.81,1.25.57,1.99-.24.75-.71,1.39-1.41,1.93-.7.54-1.45.78-2.24.72.17,1.13.76,1.64,1.76,1.55.57-.1,1.08-.48,1.52-1.15.44-.67.83-1.37,1.16-2.08.33-.72.52-1.19.57-1.42.11-.28.27-.42.49-.41.22,0,.33.18.33.52,0,.51-.22,1.35-.65,2.53-.43,1.18-1.06,2.23-1.89,3.16-.83.93-1.94,1.35-3.32,1.26-1.02-.17-1.7-.69-2.06-1.57-.35-.88-.48-1.79-.38-2.74-.85,1.3-1.39,2.57-1.64,3.82-.01,0-.02,0-.02.02ZM67.84,21.48c-.24-.16-.6-.08-1.07.24-.47.32-.99.79-1.55,1.44.22.35.51.5.87.45.36-.05.72-.21,1.06-.49.35-.28.59-.58.75-.89.15-.32.13-.56-.06-.75Z" fill="#f880b1" stroke-width="0"/><path d="M71.26,28.94c-.97-.24-1.48-.95-1.53-2.13-.05-1.18.28-2.45,1-3.82.72-1.37,1.71-2.47,2.98-3.29.42-.23.79-.32,1.11-.27.32.05.54.18.66.38.13.21.12.42-.03.65-.24.34-.55.83-.91,1.47-.36.64-.71,1.31-1.04,2s-.55,1.29-.67,1.78c-.12.5-.05.78.2.84.52.01,1.05-.35,1.59-1.1.54-.75,1-1.48,1.37-2.21.51-1.12,1.28-2.02,2.31-2.71.41-.24.78-.34,1.09-.28.32.05.54.19.67.4.13.21.13.43-.02.65-.33.47-.69,1.11-1.08,1.9-.39.79-.68,1.53-.85,2.2-.17.67-.09,1.06.24,1.16.45.01.89-.29,1.34-.9.44-.61.85-1.27,1.22-1.96.37-.7.58-1.16.65-1.39.11-.28.27-.42.48-.41.21,0,.32.18.32.52,0,.51-.27,1.34-.81,2.5-.54,1.16-1.23,2.17-2.06,3.04-.84.87-1.81,1.2-2.91.99-.8-.27-1.24-1-1.31-2.2-.53.73-1.14,1.31-1.82,1.74-.68.43-1.41.59-2.2.46Z" fill="#f880b1" stroke-width="0"/><path d="M81.36,29.61c-.32.1-.63.04-.94-.16-.31-.21-.51-.57-.61-1.09-.35-3.06.63-5.86,2.95-8.4.59-.53,1.17-.85,1.73-.96.56-.11.98-.08,1.26.08.28.16.3.39.07.68-1.29,1.41-2.23,3-2.84,4.77.72-1.1,1.52-2.1,2.43-2.98.9-.89,1.81-1.49,2.72-1.82.52-.16.97-.12,1.36.13.38.24.65.56.79.95.15.39.13.72-.04,1-.01.02-.02.05-.04.07-.22.27-.55.78-.98,1.53,1.43-1.83,2.95-3.06,4.57-3.67.52-.16.97-.12,1.36.13.38.24.65.56.79.95.15.39.13.72-.04,1-.12.17-.33.51-.62,1.01-.29.5-.58,1.05-.86,1.66-.28.6-.47,1.12-.55,1.57-.08.45.02.7.33.75.45,0,.91-.35,1.37-1.06.47-.71.89-1.46,1.28-2.25.39-.79.62-1.28.68-1.47.07-.19.2-.27.39-.23.19.04.29.29.28.75,0,.45-.28,1.25-.83,2.37-.55,1.13-1.25,2.18-2.1,3.15-.85.97-1.85,1.44-2.97,1.4-.91-.12-1.43-.63-1.55-1.54-.12-.9.02-1.94.42-3.11.4-1.17.93-2.21,1.6-3.12-1.19.82-2.26,1.95-3.2,3.36-.95,1.42-1.39,2.66-1.33,3.71.01.04.02.07.02.09-.01.28-.19.48-.52.59-.33.12-.72.12-1.15,0-.44-.12-.81-.38-1.12-.79-.31-.41-.45-1.01-.41-1.78.19-1.67.79-3.28,1.78-4.82-1.1.98-2.13,2.16-3.06,3.54-.94,1.38-1.52,2.41-1.74,3.1v.07s-.02.1-.04.15v.04c-.11.36-.32.59-.64.69Z" fill="#f880b1" stroke-width="0"/></g></g></svg>